<svg width="20" height="21" viewBox="0 0 20 21" fill="none" xmlns="http://www.w3.org/2000/svg">
<path d="M11.7333 1.8133L13.4933 5.3333C13.7333 5.8133 14.3733 6.2933 14.9066 6.3733L18.0933 6.90662C20.1333 7.25329 20.6133 8.71997 19.1466 10.1866L16.6666 12.6666C16.2533 13.08 16.0133 13.8933 16.1466 14.48L16.8533 17.56C17.4133 19.9866 16.12 20.9333 13.9733 19.6666L10.9866 17.8933C10.44 17.5733 9.55999 17.5733 9.01332 17.8933L6.02663 19.6666C3.87996 20.9333 2.58662 19.9866 3.14662 17.56L3.85333 14.48C3.98666 13.9066 3.74664 13.0933 3.33331 12.6666L0.853328 10.1866C-0.613339 8.71997 -0.133368 7.23996 1.90663 6.90662L5.09332 6.3733C5.62665 6.27996 6.26665 5.8133 6.50665 5.3333L8.26666 1.8133C9.21333 -0.0933658 10.7866 -0.0933658 11.7333 1.8133Z" fill="#DD7824"/>
</svg>
