<svg width="17" height="32" viewBox="0 0 17 32" fill="none" xmlns="http://www.w3.org/2000/svg">
<path opacity="0.4" d="M12.1203 23.0659C10.9534 23.0659 9.87687 22.0126 9.17538 20.1592C9.00869 19.7192 9.05731 19.0926 9.28651 18.7592C9.51571 18.4259 9.84216 18.5326 10.0158 18.9726C10.5228 20.2926 11.2868 21.0526 12.1203 21.0526C13.5718 21.0526 14.7595 18.7859 14.7595 15.9859C14.7595 13.1859 13.5788 10.9192 12.1203 10.9192C11.134 10.9192 10.2033 11.9326 9.69629 13.5459L7.85576 19.4259C7.16122 21.6526 5.89022 23.0259 4.54281 23.0259C2.51475 23.0259 0.861725 19.8526 0.861725 15.9592C0.861725 12.0659 2.51475 8.89258 4.54281 8.89258C5.70964 8.89258 6.78617 9.9459 7.48765 11.7992C7.65434 12.2392 7.60572 12.8659 7.37652 13.1992C7.14038 13.5326 6.8209 13.4259 6.64726 12.9859C6.14025 11.6659 5.37626 10.9059 4.54281 10.9059C3.09121 10.9059 1.90354 13.1726 1.90354 15.9726C1.90354 18.7726 3.08427 21.0392 4.54281 21.0392C5.52905 21.0392 6.45973 20.0259 6.96675 18.4126L8.80728 12.5326C9.50182 10.3059 10.7728 8.93258 12.1203 8.93258C14.1483 8.93258 15.8013 12.1059 15.8013 15.9992C15.8013 19.8926 14.1483 23.0659 12.1203 23.0659Z" fill="#DD7824"/>
<path d="M4.51451 18.6673C5.28168 18.6673 5.90359 17.4734 5.90359 16.0007C5.90359 14.5279 5.28168 13.334 4.51451 13.334C3.74734 13.334 3.12543 14.5279 3.12543 16.0007C3.12543 17.4734 3.74734 18.6673 4.51451 18.6673Z" fill="#DD7824"/>
<path d="M12.1541 18.6673C12.9213 18.6673 13.5432 17.4734 13.5432 16.0007C13.5432 14.5279 12.9213 13.334 12.1541 13.334C11.387 13.334 10.765 14.5279 10.765 16.0007C10.765 17.4734 11.387 18.6673 12.1541 18.6673Z" fill="#DD7824"/>
</svg>
