<svg width="32" height="32" viewBox="0 0 32 32" fill="none" xmlns="http://www.w3.org/2000/svg">
<path opacity="0.4" d="M27.1467 16.9732C26.6533 16.9732 26.24 16.5999 26.1867 16.1066C25.8667 13.1732 24.2933 10.5332 21.8667 8.85325C21.4267 8.54658 21.32 7.94658 21.6267 7.50658C21.9333 7.06658 22.5333 6.95991 22.9733 7.26658C25.8667 9.27991 27.7333 12.4266 28.12 15.9066C28.1733 16.4399 27.7867 16.9199 27.2533 16.9732C27.2133 16.9732 27.1867 16.9732 27.1467 16.9732Z" fill="#DD7824"/>
<path opacity="0.4" d="M4.98705 17.04C4.96038 17.04 4.92038 17.04 4.89372 17.04C4.36038 16.9866 3.97372 16.5066 4.02705 15.9733C4.38705 12.4933 6.22705 9.34663 9.09372 7.31996C9.52038 7.0133 10.1337 7.11996 10.4404 7.54663C10.7471 7.98663 10.6404 8.58663 10.2137 8.8933C7.81372 10.6 6.25372 13.24 5.96038 16.16C5.90705 16.6666 5.48038 17.04 4.98705 17.04Z" fill="#DD7824"/>
<path opacity="0.4" d="M21.3195 28.1334C19.6795 28.9201 17.9195 29.3201 16.0795 29.3201C14.1595 29.3201 12.3328 28.8934 10.6261 28.0268C10.1461 27.8001 9.95948 27.2134 10.1995 26.7334C10.4261 26.2534 11.0128 26.0668 11.4928 26.2934C12.3328 26.7201 13.2261 27.0134 14.1328 27.1868C15.3595 27.4268 16.6128 27.4401 17.8395 27.2268C18.7461 27.0668 19.6395 26.7868 20.4661 26.3868C20.9595 26.1601 21.5461 26.3468 21.7595 26.8401C21.9995 27.3201 21.8128 27.9068 21.3195 28.1334Z" fill="#DD7824"/>
<path d="M16.0673 2.67999C14.0006 2.67999 12.3073 4.35999 12.3073 6.43999C12.3073 8.51999 13.9873 10.2 16.0673 10.2C18.1473 10.2 19.8273 8.51999 19.8273 6.43999C19.8273 4.35999 18.1473 2.67999 16.0673 2.67999Z" fill="#DD7824"/>
<path d="M6.73396 18.4935C4.66729 18.4935 2.97396 20.1735 2.97396 22.2535C2.97396 24.3335 4.65396 26.0135 6.73396 26.0135C8.81396 26.0135 10.494 24.3335 10.494 22.2535C10.494 20.1735 8.80062 18.4935 6.73396 18.4935Z" fill="#DD7824"/>
<path d="M25.2667 18.4933C23.2 18.4933 21.5067 20.1733 21.5067 22.2533C21.5067 24.3333 23.1867 26.0133 25.2667 26.0133C27.3467 26.0133 29.0267 24.3333 29.0267 22.2533C29.0267 20.1733 27.3467 18.4933 25.2667 18.4933Z" fill="#DD7824"/>
</svg>
