<svg width="58" height="58" viewBox="0 0 58 58" fill="none" xmlns="http://www.w3.org/2000/svg">
<g filter="url(#filter0_d_0_426)">
<rect x="17" y="17" width="24" height="24" rx="4" fill="#DD7824"/>
<path d="M34.6467 22.3333H23.3534C23.2264 22.3316 23.1004 22.3548 22.9824 22.4018C22.8644 22.4488 22.7569 22.5185 22.6659 22.607C22.5749 22.6955 22.5022 22.8011 22.452 22.9178C22.4018 23.0344 22.3751 23.1597 22.3734 23.2867V34.7133C22.3751 34.8403 22.4018 34.9657 22.452 35.0823C22.5022 35.1989 22.5749 35.3045 22.6659 35.393C22.7569 35.4815 22.8644 35.5513 22.9824 35.5982C23.1004 35.6452 23.2264 35.6684 23.3534 35.6667H34.6467C34.7736 35.6684 34.8997 35.6452 35.0176 35.5982C35.1356 35.5513 35.2431 35.4815 35.3342 35.393C35.4252 35.3045 35.4978 35.1989 35.548 35.0823C35.5982 34.9657 35.6249 34.8403 35.6267 34.7133V23.2867C35.6249 23.1597 35.5982 23.0344 35.548 22.9178C35.4978 22.8011 35.4252 22.6955 35.3342 22.607C35.2431 22.5185 35.1356 22.4488 35.0176 22.4018C34.8997 22.3548 34.7736 22.3316 34.6467 22.3333ZM26.3934 33.4933H24.3934V27.4933H26.3934V33.4933ZM25.3934 26.6533C25.1175 26.6533 24.853 26.5438 24.658 26.3487C24.4629 26.1537 24.3534 25.8892 24.3534 25.6133C24.3534 25.3375 24.4629 25.073 24.658 24.878C24.853 24.6829 25.1175 24.5733 25.3934 24.5733C25.5398 24.5567 25.6881 24.5712 25.8286 24.6159C25.9691 24.6606 26.0985 24.7345 26.2085 24.8327C26.3184 24.9308 26.4064 25.0511 26.4666 25.1857C26.5268 25.3202 26.558 25.4659 26.558 25.6133C26.558 25.7607 26.5268 25.9065 26.4666 26.041C26.4064 26.1756 26.3184 26.2959 26.2085 26.394C26.0985 26.4922 25.9691 26.5661 25.8286 26.6108C25.6881 26.6554 25.5398 26.67 25.3934 26.6533ZM33.6067 33.4933H31.6067V30.2733C31.6067 29.4667 31.32 28.94 30.5934 28.94C30.3685 28.9417 30.1495 29.0122 29.9659 29.1421C29.7823 29.2721 29.643 29.4551 29.5667 29.6667C29.5145 29.8234 29.4919 29.9884 29.5 30.1533V33.4867H27.5C27.5 33.4867 27.5 28.0333 27.5 27.4867H29.5V28.3333C29.6817 28.0181 29.946 27.7584 30.2643 27.5821C30.5827 27.4059 30.9431 27.3199 31.3067 27.3333C32.64 27.3333 33.6067 28.1933 33.6067 30.04V33.4933Z" fill="white"/>
</g>
<defs>
<filter id="filter0_d_0_426" x="0" y="0" width="58" height="58" filterUnits="userSpaceOnUse" color-interpolation-filters="sRGB">
<feFlood flood-opacity="0" result="BackgroundImageFix"/>
<feColorMatrix in="SourceAlpha" type="matrix" values="0 0 0 0 0 0 0 0 0 0 0 0 0 0 0 0 0 0 127 0" result="hardAlpha"/>
<feOffset/>
<feGaussianBlur stdDeviation="8.5"/>
<feComposite in2="hardAlpha" operator="out"/>
<feColorMatrix type="matrix" values="0 0 0 0 0 0 0 0 0 0 0 0 0 0 0 0 0 0 0.05 0"/>
<feBlend mode="normal" in2="BackgroundImageFix" result="effect1_dropShadow_0_426"/>
<feBlend mode="normal" in="SourceGraphic" in2="effect1_dropShadow_0_426" result="shape"/>
</filter>
</defs>
</svg>
