<svg width="19" height="19" viewBox="0 0 19 19" fill="none" xmlns="http://www.w3.org/2000/svg">
<g clip-path="url(#clip0_9_619)">
<path d="M9.5 0C6.98102 0 4.56297 1.00151 2.7832 2.78246C1.0016 4.56412 0.00049351 6.98039 0 9.5C0 12.0185 1.00195 14.4366 2.7832 16.2175C4.56297 17.9985 6.98102 19 9.5 19C12.019 19 14.437 17.9985 16.2168 16.2175C17.998 14.4366 19 12.0185 19 9.5C19 6.98146 17.998 4.56341 16.2168 2.78246C14.437 1.00151 12.019 0 9.5 0Z" fill="url(#paint0_linear_9_619)"/>
<path d="M4.30017 9.39954C7.07001 8.19304 8.91658 7.39756 9.83986 7.01326C12.4791 5.91586 13.0268 5.72526 13.3845 5.71881C13.4632 5.71754 13.6384 5.73699 13.7527 5.82939C13.8477 5.90732 13.8744 6.01271 13.8877 6.08671C13.8996 6.16063 13.9159 6.32911 13.9026 6.46062C13.7601 7.96281 13.1411 11.6081 12.8264 13.2907C12.6943 14.0026 12.4316 14.2413 12.1777 14.2646C11.6256 14.3153 11.207 13.9 10.6726 13.5498C9.83689 13.0017 9.36486 12.6606 8.5529 12.1257C7.61478 11.5076 8.22337 11.1679 8.75775 10.6127C8.89728 10.4674 11.3287 8.25642 11.3747 8.05588C11.3806 8.03079 11.3866 7.93728 11.3302 7.888C11.2752 7.83857 11.1936 7.85549 11.1342 7.86885C11.0496 7.88785 9.71517 8.77076 7.12642 10.5174C6.7479 10.7778 6.40501 10.9047 6.09626 10.898C5.75783 10.8907 5.1047 10.7062 4.61931 10.5486C4.02556 10.3552 3.55204 10.2529 3.59361 9.92441C3.61439 9.75341 3.8504 9.5784 4.30017 9.39954Z" fill="white"/>
</g>
<defs>
<linearGradient id="paint0_linear_9_619" x1="9.5" y1="0" x2="9.5" y2="19" gradientUnits="userSpaceOnUse">
<stop stop-color="#2AABEE"/>
<stop offset="1" stop-color="#229ED9"/>
</linearGradient>
<clipPath id="clip0_9_619">
<rect width="19" height="19" fill="white"/>
</clipPath>
</defs>
</svg>
