<svg width="19" height="19" viewBox="0 0 19 19" fill="none" xmlns="http://www.w3.org/2000/svg">
<g clip-path="url(#clip0_9_633)">
<path d="M0.402269 9.38631C0.401827 10.9827 0.818943 12.5414 1.61208 13.9153L0.326416 18.6095L5.13032 17.3499C6.45902 18.0732 7.94773 18.4522 9.46056 18.4523H9.46453C14.4587 18.4523 18.524 14.3885 18.5261 9.39346C18.5271 6.97302 17.5853 4.697 15.8743 2.98464C14.1636 1.27243 11.8884 0.328986 9.46416 0.327881C4.46945 0.327881 0.404404 4.39152 0.402342 9.38631" fill="url(#paint0_linear_9_633)"/>
<path d="M0.0787985 9.38335C0.0782829 11.0372 0.510349 12.6516 1.33177 14.0747L0 18.9372L4.97616 17.6324C6.34725 18.38 7.89096 18.7741 9.46178 18.7747H9.46583C14.6391 18.7747 18.8505 14.5647 18.8527 9.39086C18.8536 6.88345 17.878 4.52561 16.1058 2.75191C14.3334 0.978426 11.9768 0.00103101 9.46583 0C4.29164 0 0.0809341 4.20946 0.0788721 9.38335H0.0787985ZM3.04221 13.8296L2.85641 13.5347C2.07534 12.2928 1.66309 10.8576 1.66368 9.38394C1.66537 5.08353 5.1652 1.58481 9.46877 1.58481C11.5529 1.58569 13.5115 2.39812 14.9847 3.87217C16.4578 5.34636 17.2683 7.30602 17.2678 9.39027C17.2659 13.6907 13.766 17.1898 9.46583 17.1898H9.46274C8.06255 17.1891 6.68933 16.8131 5.49174 16.1025L5.20674 15.9335L2.25378 16.7077L3.04221 13.8296V13.8296Z" fill="url(#paint1_linear_9_633)"/>
<path d="M7.11965 5.46052C6.94394 5.06999 6.75902 5.06211 6.59192 5.05526C6.45509 5.04937 6.29867 5.04981 6.1424 5.04981C5.98598 5.04981 5.73184 5.10865 5.51702 5.34321C5.30198 5.57798 4.69604 6.14533 4.69604 7.29925C4.69604 8.45324 5.53654 9.56842 5.6537 9.72506C5.77102 9.88141 7.27629 12.3252 9.66027 13.2653C11.6416 14.0466 12.0448 13.8912 12.4748 13.852C12.9049 13.813 13.8625 13.2848 14.0579 12.7372C14.2534 12.1895 14.2534 11.7201 14.1948 11.622C14.1362 11.5243 13.9798 11.4656 13.7452 11.3484C13.5106 11.2311 12.3575 10.6636 12.1425 10.5854C11.9275 10.5072 11.7711 10.4681 11.6147 10.703C11.4583 10.9375 11.0091 11.4656 10.8722 11.622C10.7355 11.7788 10.5986 11.7983 10.3641 11.681C10.1294 11.5634 9.37402 11.316 8.47785 10.517C7.7806 9.89533 7.30987 9.12759 7.17304 8.89275C7.03621 8.65827 7.15839 8.53116 7.27599 8.41429C7.38138 8.3092 7.51062 8.14041 7.62801 8.0035C7.74496 7.86653 7.78399 7.7688 7.8622 7.61238C7.94048 7.45582 7.9013 7.31884 7.84275 7.20153C7.78399 7.08421 7.32821 5.92433 7.11965 5.4606" fill="white"/>
</g>
<defs>
<linearGradient id="paint0_linear_9_633" x1="9.42627" y1="18.6095" x2="9.42627" y2="0.327881" gradientUnits="userSpaceOnUse">
<stop stop-color="#1FAF38"/>
<stop offset="1" stop-color="#60D669"/>
</linearGradient>
<linearGradient id="paint1_linear_9_633" x1="9.42636" y1="18.9372" x2="9.42636" y2="0" gradientUnits="userSpaceOnUse">
<stop stop-color="#F9F9F9"/>
<stop offset="1" stop-color="white"/>
</linearGradient>
<clipPath id="clip0_9_633">
<rect width="18.8527" height="19" fill="white"/>
</clipPath>
</defs>
</svg>
