<svg width="19" height="19" viewBox="0 0 19 19" fill="none" xmlns="http://www.w3.org/2000/svg">
<g clip-path="url(#clip0_142_491)">
<path d="M16.8889 3.16675H2.1111C1.83115 3.16675 1.56266 3.27796 1.36471 3.47591C1.16675 3.67387 1.05554 3.94235 1.05554 4.2223V14.7779C1.05554 15.0578 1.16675 15.3263 1.36471 15.5243C1.56266 15.7222 1.83115 15.8334 2.1111 15.8334H10.0278L10.3286 15.464L10.8194 14.8623L10.7719 14.7779H2.1111V4.2223H16.8889V8.74008C17.2898 8.99964 17.6463 9.32221 17.9444 9.69536V4.2223C17.9444 3.94235 17.8332 3.67387 17.6353 3.47591C17.4373 3.27796 17.1688 3.16675 16.8889 3.16675Z" fill="#2B6843"/>
<path d="M3.69446 6.33325H12.6667V7.1777H3.69446V6.33325Z" fill="#2B6843"/>
<path d="M3.69446 8.44434H9.50001V9.28878H3.69446V8.44434Z" fill="#2B6843"/>
<path d="M3.69446 12.1389H8.97224V12.9834H3.69446V12.1389Z" fill="#2B6843"/>
<path d="M14.4928 9.09361C13.8174 9.08825 13.1561 9.28675 12.5954 9.66318C12.0346 10.0396 11.6004 10.5764 11.3496 11.2035C11.0987 11.8306 11.0429 12.5188 11.1894 13.1781C11.3359 13.8375 11.6778 14.4373 12.1706 14.8992L11.1467 16.15L11.6217 18.0553L13.5534 15.7014C14.1648 15.8822 14.8155 15.8822 15.427 15.7014L17.3587 18.0553L17.8337 16.15L16.8098 14.8992C17.3025 14.4373 17.6445 13.8375 17.791 13.1781C17.9374 12.5188 17.8816 11.8306 17.6308 11.2035C17.3799 10.5764 16.9458 10.0396 16.385 9.66318C15.8242 9.28675 15.1629 9.08825 14.4875 9.09361H14.4928ZM14.4928 14.7303C14.0443 14.724 13.6077 14.5853 13.2378 14.3316C12.8679 14.0779 12.5813 13.7205 12.414 13.3043C12.2466 12.8882 12.2061 12.4318 12.2974 11.9927C12.3887 11.5535 12.6078 11.1512 12.9272 10.8362C13.2465 10.5213 13.6519 10.3077 14.0922 10.2225C14.5326 10.1373 14.9883 10.1841 15.4021 10.3572C15.8159 10.5302 16.1694 10.8218 16.4179 11.1951C16.6665 11.5685 16.7992 12.007 16.7992 12.4556C16.7936 13.0626 16.5478 13.6428 16.1156 14.0691C15.6834 14.4953 15.0999 14.7331 14.4928 14.7303Z" fill="#2B6843"/>
</g>
<defs>
<clipPath id="clip0_142_491">
<rect width="19" height="19" fill="white"/>
</clipPath>
</defs>
</svg>
