<svg width="19" height="19" viewBox="0 0 19 19" fill="none" xmlns="http://www.w3.org/2000/svg">
<path d="M15.8334 3.35498H3.16671C2.29587 3.35498 1.58337 4.02469 1.58337 4.84322V13.7726C1.58337 14.5912 2.29587 15.2609 3.16671 15.2609H15.8334C16.7042 15.2609 17.4167 14.5912 17.4167 13.7726V4.84322C17.4167 4.02469 16.7042 3.35498 15.8334 3.35498ZM15.8334 13.7726H3.16671V4.84322H15.8334V13.7726Z" fill="#794E00"/>
<path d="M5.13797 8.19162V11.5402H6.04839V7.07544H5.35964L3.96631 8.02047L4.42548 8.68274L5.13797 8.19162ZM9.08048 7.85676C9.47631 7.85676 9.72172 8.09488 9.72172 8.39253C9.72172 8.66785 9.61089 8.86877 9.29423 9.1813C9.00922 9.46406 8.45506 9.98494 7.60798 10.7812V11.5402H10.6876V10.8035H8.81131L8.78756 10.7663C9.32589 10.2603 9.69798 9.91797 9.89589 9.73194C10.3788 9.28547 10.6242 8.82412 10.6242 8.34788C10.6242 8.16929 10.5846 7.574 9.90381 7.24659C9.53173 7.07544 8.90631 6.9787 8.36006 7.22426C7.71089 7.51447 7.57631 8.06512 7.56839 8.08L8.36797 8.39253C8.44714 8.14697 8.66881 7.85676 9.08048 7.85676ZM13.4505 10.7514C12.7934 10.7514 12.6667 10.1859 12.643 10.1114L11.8276 10.4165C12.1838 11.5997 13.4188 11.5402 13.4505 11.5402C14.4005 11.5402 14.7805 11.0044 14.8438 10.9077C15.0971 10.543 15.1288 9.98495 14.8359 9.598C14.7013 9.41941 14.5192 9.29291 14.2976 9.21106V9.15897C14.4559 9.08456 14.5905 8.9655 14.7092 8.8018C14.9151 8.49671 14.9546 8.00559 14.6934 7.63353C14.6301 7.55168 14.2738 7.07544 13.4109 7.07544C12.4134 7.07544 12.0334 7.74515 11.9463 7.99815L12.7301 8.30324C12.8171 8.06512 13.0071 7.827 13.403 7.827C13.7513 7.827 13.9967 8.02047 13.9967 8.31068C13.9967 8.74227 13.5613 8.84644 13.3001 8.84644H12.9359V9.59056H13.3317C13.7751 9.59056 14.1551 9.76915 14.1551 10.1784C14.1551 10.543 13.7751 10.7514 13.4505 10.7514Z" fill="#794E00"/>
</svg>
