<svg width="20" height="20" viewBox="0 0 20 20" fill="none" xmlns="http://www.w3.org/2000/svg">
<path fill-rule="evenodd" clip-rule="evenodd" d="M15 6.66675C15 6.33523 15.1317 6.01728 15.3661 5.78286C15.6005 5.54844 15.9185 5.41675 16.25 5.41675C16.5815 5.41675 16.8995 5.54844 17.1339 5.78286C17.3683 6.01728 17.5 6.33523 17.5 6.66675V15.1263L16.25 17.0013L15 15.1263V6.66675ZM16.25 6.25008C16.1395 6.25008 16.0335 6.29398 15.9554 6.37212C15.8772 6.45026 15.8333 6.55624 15.8333 6.66675V14.8738L16.25 15.4988L16.6667 14.8738V6.66675C16.6667 6.55624 16.6228 6.45026 16.5446 6.37212C16.4665 6.29398 16.3605 6.25008 16.25 6.25008Z" fill="#BE202E"/>
<path fill-rule="evenodd" clip-rule="evenodd" d="M17.0833 8.33333H15.4167V7.5H17.0833V8.33333ZM4.16667 3.33333C3.94565 3.33333 3.73369 3.42113 3.57741 3.57741C3.42113 3.73369 3.33333 3.94565 3.33333 4.16667V15.8333C3.33333 16.0543 3.42113 16.2663 3.57741 16.4226C3.73369 16.5789 3.94565 16.6667 4.16667 16.6667H12.5C12.721 16.6667 12.933 16.5789 13.0893 16.4226C13.2455 16.2663 13.3333 16.0543 13.3333 15.8333V4.16667C13.3333 3.94565 13.2455 3.73369 13.0893 3.57741C12.933 3.42113 12.721 3.33333 12.5 3.33333H4.16667ZM2.5 4.16667C2.5 3.72464 2.67559 3.30072 2.98816 2.98816C3.30072 2.67559 3.72464 2.5 4.16667 2.5H12.5C12.942 2.5 13.366 2.67559 13.6785 2.98816C13.9911 3.30072 14.1667 3.72464 14.1667 4.16667V15.8333C14.1667 16.2754 13.9911 16.6993 13.6785 17.0118C13.366 17.3244 12.942 17.5 12.5 17.5H4.16667C3.72464 17.5 3.30072 17.3244 2.98816 17.0118C2.67559 16.6993 2.5 16.2754 2.5 15.8333V4.16667Z" fill="#BE202E"/>
<path fill-rule="evenodd" clip-rule="evenodd" d="M8.33329 6.24992C8.33329 6.13941 8.37718 6.03343 8.45532 5.95529C8.53346 5.87715 8.63945 5.83325 8.74995 5.83325H12.0833C12.1938 5.83325 12.2998 5.87715 12.3779 5.95529C12.4561 6.03343 12.5 6.13941 12.5 6.24992C12.5 6.36043 12.4561 6.46641 12.3779 6.54455C12.2998 6.62269 12.1938 6.66659 12.0833 6.66659H8.74995C8.63945 6.66659 8.53346 6.62269 8.45532 6.54455C8.37718 6.46641 8.33329 6.36043 8.33329 6.24992ZM8.33329 7.91659C8.33329 7.80608 8.37718 7.7001 8.45532 7.62196C8.53346 7.54382 8.63945 7.49992 8.74995 7.49992H12.0833C12.1938 7.49992 12.2998 7.54382 12.3779 7.62196C12.4561 7.7001 12.5 7.80608 12.5 7.91659C12.5 8.02709 12.4561 8.13307 12.3779 8.21121C12.2998 8.28935 12.1938 8.33325 12.0833 8.33325H8.74995C8.63945 8.33325 8.53346 8.28935 8.45532 8.21121C8.37718 8.13307 8.33329 8.02709 8.33329 7.91659ZM8.33329 11.6666C8.33329 11.5561 8.37718 11.4501 8.45532 11.372C8.53346 11.2938 8.63945 11.2499 8.74995 11.2499H12.0833C12.1938 11.2499 12.2998 11.2938 12.3779 11.372C12.4561 11.4501 12.5 11.5561 12.5 11.6666C12.5 11.7771 12.4561 11.8831 12.3779 11.9612C12.2998 12.0394 12.1938 12.0833 12.0833 12.0833H8.74995C8.63945 12.0833 8.53346 12.0394 8.45532 11.9612C8.37718 11.8831 8.33329 11.7771 8.33329 11.6666ZM8.33329 13.3333C8.33329 13.2227 8.37718 13.1168 8.45532 13.0386C8.53346 12.9605 8.63945 12.9166 8.74995 12.9166H12.0833C12.1938 12.9166 12.2998 12.9605 12.3779 13.0386C12.4561 13.1168 12.5 13.2227 12.5 13.3333C12.5 13.4438 12.4561 13.5497 12.3779 13.6279C12.2998 13.706 12.1938 13.7499 12.0833 13.7499H8.74995C8.63945 13.7499 8.53346 13.706 8.45532 13.6279C8.37718 13.5497 8.33329 13.4438 8.33329 13.3333ZM4.99995 11.6666V12.9166H6.24995V11.6666H4.99995ZM4.58329 10.8333H6.66662C6.77713 10.8333 6.88311 10.8772 6.96125 10.9553C7.03939 11.0334 7.08329 11.1394 7.08329 11.2499V13.3333C7.08329 13.4438 7.03939 13.5497 6.96125 13.6279C6.88311 13.706 6.77713 13.7499 6.66662 13.7499H4.58329C4.47278 13.7499 4.3668 13.706 4.28866 13.6279C4.21052 13.5497 4.16662 13.4438 4.16662 13.3333V11.2499C4.16662 11.1394 4.21052 11.0334 4.28866 10.9553C4.3668 10.8772 4.47278 10.8333 4.58329 10.8333ZM7.37787 5.95534C7.45598 6.03347 7.49986 6.13943 7.49986 6.24992C7.49986 6.3604 7.45598 6.46637 7.37787 6.5445L5.41662 8.50575L4.2887 7.37784C4.24891 7.3394 4.21716 7.29342 4.19533 7.24259C4.17349 7.19175 4.162 7.13708 4.16151 7.08175C4.16103 7.02643 4.17158 6.97156 4.19253 6.92035C4.21348 6.86915 4.24442 6.82263 4.28354 6.7835C4.32266 6.74438 4.36918 6.71344 4.42039 6.69249C4.4716 6.67154 4.52646 6.661 4.58179 6.66148C4.63711 6.66196 4.69179 6.67346 4.74262 6.69529C4.79346 6.71713 4.83943 6.74887 4.87787 6.78867L5.41662 7.32742L6.7887 5.95534C6.86684 5.87722 6.9728 5.83334 7.08329 5.83334C7.19377 5.83334 7.29973 5.87722 7.37787 5.95534Z" fill="#BE202E"/>
</svg>
