<svg width="20" height="20" viewBox="0 0 20 20" fill="none" xmlns="http://www.w3.org/2000/svg">
<path d="M5.83329 8.33342H7.49996C7.72097 8.33342 7.93293 8.24562 8.08921 8.08934C8.24549 7.93306 8.33329 7.7211 8.33329 7.50008C8.33329 7.27907 8.24549 7.06711 8.08921 6.91083C7.93293 6.75455 7.72097 6.66675 7.49996 6.66675H5.83329C5.61228 6.66675 5.40032 6.75455 5.24404 6.91083C5.08776 7.06711 4.99996 7.27907 4.99996 7.50008C4.99996 7.7211 5.08776 7.93306 5.24404 8.08934C5.40032 8.24562 5.61228 8.33342 5.83329 8.33342ZM17.5 3.33341H10.8333V2.50008C10.8333 2.27907 10.7455 2.06711 10.5892 1.91083C10.4329 1.75455 10.221 1.66675 9.99996 1.66675C9.77894 1.66675 9.56698 1.75455 9.4107 1.91083C9.25442 2.06711 9.16663 2.27907 9.16663 2.50008V3.33341H2.49996C2.27895 3.33341 2.06698 3.42121 1.9107 3.57749C1.75442 3.73377 1.66663 3.94573 1.66663 4.16675V12.5001C1.66663 13.1631 1.93002 13.799 2.39886 14.2678C2.8677 14.7367 3.50358 15.0001 4.16663 15.0001H7.99163L6.07496 16.9084C5.99685 16.9859 5.93486 17.0781 5.89255 17.1796C5.85024 17.2812 5.82846 17.3901 5.82846 17.5001C5.82846 17.6101 5.85024 17.719 5.89255 17.8206C5.93486 17.9221 5.99685 18.0143 6.07496 18.0917C6.15243 18.1699 6.2446 18.2319 6.34615 18.2742C6.44769 18.3165 6.55662 18.3382 6.66663 18.3382C6.77664 18.3382 6.88556 18.3165 6.98711 18.2742C7.08866 18.2319 7.18082 18.1699 7.25829 18.0917L9.16663 16.1751V17.5001C9.16663 17.7211 9.25442 17.9331 9.4107 18.0893C9.56698 18.2456 9.77894 18.3334 9.99996 18.3334C10.221 18.3334 10.4329 18.2456 10.5892 18.0893C10.7455 17.9331 10.8333 17.7211 10.8333 17.5001V16.1751L12.7416 18.0917C12.8191 18.1699 12.9113 18.2319 13.0128 18.2742C13.1144 18.3165 13.2233 18.3382 13.3333 18.3382C13.4433 18.3382 13.5522 18.3165 13.6538 18.2742C13.7553 18.2319 13.8475 18.1699 13.925 18.0917C14.0031 18.0143 14.0651 17.9221 14.1074 17.8206C14.1497 17.719 14.1715 17.6101 14.1715 17.5001C14.1715 17.3901 14.1497 17.2812 14.1074 17.1796C14.0651 17.0781 14.0031 16.9859 13.925 16.9084L12.0083 15.0001H15.8333C16.4963 15.0001 17.1322 14.7367 17.6011 14.2678C18.0699 13.799 18.3333 13.1631 18.3333 12.5001V4.16675C18.3333 3.94573 18.2455 3.73377 18.0892 3.57749C17.9329 3.42121 17.721 3.33341 17.5 3.33341ZM16.6666 12.5001C16.6666 12.7211 16.5788 12.9331 16.4225 13.0893C16.2663 13.2456 16.0543 13.3334 15.8333 13.3334H4.16663C3.94561 13.3334 3.73365 13.2456 3.57737 13.0893C3.42109 12.9331 3.33329 12.7211 3.33329 12.5001V5.00008H16.6666V12.5001ZM5.83329 11.6667H10.8333C11.0543 11.6667 11.2663 11.579 11.4225 11.4227C11.5788 11.2664 11.6666 11.0544 11.6666 10.8334C11.6666 10.6124 11.5788 10.4004 11.4225 10.2442C11.2663 10.0879 11.0543 10.0001 10.8333 10.0001H5.83329C5.61228 10.0001 5.40032 10.0879 5.24404 10.2442C5.08776 10.4004 4.99996 10.6124 4.99996 10.8334C4.99996 11.0544 5.08776 11.2664 5.24404 11.4227C5.40032 11.579 5.61228 11.6667 5.83329 11.6667Z" fill="#2B6843"/>
</svg>
