<svg width="20" height="20" viewBox="0 0 20 20" fill="none" xmlns="http://www.w3.org/2000/svg">
<path d="M1.66663 6.66659H18.3333M1.66663 4.99992C1.66663 4.55789 1.84222 4.13397 2.15478 3.82141C2.46734 3.50885 2.89127 3.33325 3.33329 3.33325H16.6666C17.1087 3.33325 17.5326 3.50885 17.8451 3.82141C18.1577 4.13397 18.3333 4.55789 18.3333 4.99992V14.9999C18.3333 15.4419 18.1577 15.8659 17.8451 16.1784C17.5326 16.491 17.1087 16.6666 16.6666 16.6666H3.33329C2.89127 16.6666 2.46734 16.491 2.15478 16.1784C1.84222 15.8659 1.66663 15.4419 1.66663 14.9999V4.99992Z" stroke="#F77E23" stroke-width="2" stroke-linecap="round" stroke-linejoin="round"/>
<path d="M1.66663 10H7.49996C7.49996 10.8333 7.99996 12.5 9.99996 12.5C12 12.5 12.5 10.8333 12.5 10H18.3333" stroke="#F77E23" stroke-width="2" stroke-linecap="round" stroke-linejoin="round"/>
</svg>
