<svg width="16" height="16" viewBox="0 0 16 16" fill="none" xmlns="http://www.w3.org/2000/svg">
<path fill-rule="evenodd" clip-rule="evenodd" d="M13 4.66675C13 4.33523 13.1317 4.01728 13.3661 3.78286C13.6005 3.54844 13.9185 3.41675 14.25 3.41675C14.5815 3.41675 14.8995 3.54844 15.1339 3.78286C15.3683 4.01728 15.5 4.33523 15.5 4.66675V13.1263L14.25 15.0013L13 13.1263V4.66675ZM14.25 4.25008C14.1395 4.25008 14.0335 4.29398 13.9554 4.37212C13.8772 4.45026 13.8333 4.55624 13.8333 4.66675V12.8738L14.25 13.4988L14.6667 12.8738V4.66675C14.6667 4.55624 14.6228 4.45026 14.5446 4.37212C14.4665 4.29398 14.3605 4.25008 14.25 4.25008Z" fill="#BE202E"/>
<path fill-rule="evenodd" clip-rule="evenodd" d="M15.0833 6.33333H13.4167V5.5H15.0833V6.33333ZM2.16667 1.33333C1.94565 1.33333 1.73369 1.42113 1.57741 1.57741C1.42113 1.73369 1.33333 1.94565 1.33333 2.16667V13.8333C1.33333 14.0543 1.42113 14.2663 1.57741 14.4226C1.73369 14.5789 1.94565 14.6667 2.16667 14.6667H10.5C10.721 14.6667 10.933 14.5789 11.0893 14.4226C11.2455 14.2663 11.3333 14.0543 11.3333 13.8333V2.16667C11.3333 1.94565 11.2455 1.73369 11.0893 1.57741C10.933 1.42113 10.721 1.33333 10.5 1.33333H2.16667ZM0.5 2.16667C0.5 1.72464 0.675595 1.30072 0.988155 0.988155C1.30072 0.675595 1.72464 0.5 2.16667 0.5H10.5C10.942 0.5 11.366 0.675595 11.6785 0.988155C11.9911 1.30072 12.1667 1.72464 12.1667 2.16667V13.8333C12.1667 14.2754 11.9911 14.6993 11.6785 15.0118C11.366 15.3244 10.942 15.5 10.5 15.5H2.16667C1.72464 15.5 1.30072 15.3244 0.988155 15.0118C0.675595 14.6993 0.5 14.2754 0.5 13.8333V2.16667Z" fill="#BE202E"/>
<path fill-rule="evenodd" clip-rule="evenodd" d="M6.33329 4.24992C6.33329 4.13941 6.37718 4.03343 6.45532 3.95529C6.53346 3.87715 6.63945 3.83325 6.74995 3.83325H10.0833C10.1938 3.83325 10.2998 3.87715 10.3779 3.95529C10.4561 4.03343 10.5 4.13941 10.5 4.24992C10.5 4.36043 10.4561 4.46641 10.3779 4.54455C10.2998 4.62269 10.1938 4.66659 10.0833 4.66659H6.74995C6.63945 4.66659 6.53346 4.62269 6.45532 4.54455C6.37718 4.46641 6.33329 4.36043 6.33329 4.24992ZM6.33329 5.91659C6.33329 5.80608 6.37718 5.7001 6.45532 5.62196C6.53346 5.54382 6.63945 5.49992 6.74995 5.49992H10.0833C10.1938 5.49992 10.2998 5.54382 10.3779 5.62196C10.4561 5.7001 10.5 5.80608 10.5 5.91659C10.5 6.02709 10.4561 6.13307 10.3779 6.21121C10.2998 6.28935 10.1938 6.33325 10.0833 6.33325H6.74995C6.63945 6.33325 6.53346 6.28935 6.45532 6.21121C6.37718 6.13307 6.33329 6.02709 6.33329 5.91659ZM6.33329 9.66659C6.33329 9.55608 6.37718 9.4501 6.45532 9.37196C6.53346 9.29382 6.63945 9.24992 6.74995 9.24992H10.0833C10.1938 9.24992 10.2998 9.29382 10.3779 9.37196C10.4561 9.4501 10.5 9.55608 10.5 9.66659C10.5 9.77709 10.4561 9.88307 10.3779 9.96121C10.2998 10.0394 10.1938 10.0833 10.0833 10.0833H6.74995C6.63945 10.0833 6.53346 10.0394 6.45532 9.96121C6.37718 9.88307 6.33329 9.77709 6.33329 9.66659ZM6.33329 11.3333C6.33329 11.2227 6.37718 11.1168 6.45532 11.0386C6.53346 10.9605 6.63945 10.9166 6.74995 10.9166H10.0833C10.1938 10.9166 10.2998 10.9605 10.3779 11.0386C10.4561 11.1168 10.5 11.2227 10.5 11.3333C10.5 11.4438 10.4561 11.5497 10.3779 11.6279C10.2998 11.706 10.1938 11.7499 10.0833 11.7499H6.74995C6.63945 11.7499 6.53346 11.706 6.45532 11.6279C6.37718 11.5497 6.33329 11.4438 6.33329 11.3333ZM2.99995 9.66659V10.9166H4.24995V9.66659H2.99995ZM2.58329 8.83325H4.66662C4.77713 8.83325 4.88311 8.87715 4.96125 8.95529C5.03939 9.03343 5.08329 9.13941 5.08329 9.24992V11.3333C5.08329 11.4438 5.03939 11.5497 4.96125 11.6279C4.88311 11.706 4.77713 11.7499 4.66662 11.7499H2.58329C2.47278 11.7499 2.3668 11.706 2.28866 11.6279C2.21052 11.5497 2.16662 11.4438 2.16662 11.3333V9.24992C2.16662 9.13941 2.21052 9.03343 2.28866 8.95529C2.3668 8.87715 2.47278 8.83325 2.58329 8.83325ZM5.37787 3.95534C5.45598 4.03347 5.49986 4.13943 5.49986 4.24992C5.49986 4.3604 5.45598 4.46637 5.37787 4.5445L3.41662 6.50575L2.2887 5.37784C2.24891 5.3394 2.21716 5.29342 2.19533 5.24259C2.17349 5.19175 2.162 5.13708 2.16151 5.08175C2.16103 5.02643 2.17158 4.97156 2.19253 4.92035C2.21348 4.86915 2.24442 4.82263 2.28354 4.7835C2.32266 4.74438 2.36918 4.71344 2.42039 4.69249C2.4716 4.67154 2.52646 4.661 2.58179 4.66148C2.63711 4.66196 2.69179 4.67346 2.74262 4.69529C2.79346 4.71713 2.83943 4.74887 2.87787 4.78867L3.41662 5.32742L4.7887 3.95534C4.86684 3.87722 4.9728 3.83334 5.08329 3.83334C5.19377 3.83334 5.29973 3.87722 5.37787 3.95534Z" fill="#BE202E"/>
</svg>
