<svg width="19" height="19" viewBox="0 0 19 19" fill="none" xmlns="http://www.w3.org/2000/svg">
<path d="M7.52087 10.6874C6.7556 10.6874 6.10247 10.4169 5.5615 9.87596C5.02053 9.33499 4.75004 8.68186 4.75004 7.91658C4.75004 7.15131 5.02053 6.49818 5.5615 5.95721C6.10247 5.41624 6.7556 5.14575 7.52087 5.14575C8.28615 5.14575 8.93928 5.41624 9.48025 5.95721C10.0212 6.49818 10.2917 7.15131 10.2917 7.91658C10.2917 8.68186 10.0212 9.33499 9.48025 9.87596C8.93928 10.4169 8.28615 10.6874 7.52087 10.6874ZM7.52087 9.10408C7.85073 9.10408 8.13098 8.9885 8.36162 8.75734C8.59279 8.5267 8.70837 8.24645 8.70837 7.91658C8.70837 7.58672 8.59279 7.30647 8.36162 7.07583C8.13098 6.84467 7.85073 6.72908 7.52087 6.72908C7.19101 6.72908 6.91076 6.84467 6.68012 7.07583C6.44896 7.30647 6.33337 7.58672 6.33337 7.91658C6.33337 8.24645 6.44896 8.5267 6.68012 8.75734C6.91076 8.9885 7.19101 9.10408 7.52087 9.10408ZM13.0625 11.4791C12.5084 11.4791 12.04 11.2878 11.6573 10.9051C11.2747 10.5225 11.0834 10.0541 11.0834 9.49992C11.0834 8.94575 11.2747 8.47735 11.6573 8.09471C12.04 7.71207 12.5084 7.52075 13.0625 7.52075C13.6167 7.52075 14.0851 7.71207 14.4677 8.09471C14.8504 8.47735 15.0417 8.94575 15.0417 9.49992C15.0417 10.0541 14.8504 10.5225 14.4677 10.9051C14.0851 11.2878 13.6167 11.4791 13.0625 11.4791ZM8.15421 15.6749C8.74796 14.4742 9.53962 13.6725 10.5292 13.2698C11.5188 12.8677 12.3632 12.6666 13.0625 12.6666C13.366 12.6666 13.6629 12.693 13.9532 12.7458C14.2434 12.7985 14.5271 12.8645 14.8042 12.9437C15.1209 12.4423 15.3716 11.9013 15.5563 11.3208C15.741 10.7402 15.8334 10.1333 15.8334 9.49992C15.8334 7.73186 15.2198 6.23429 13.9927 5.00721C12.7657 3.78013 11.2681 3.16659 9.50004 3.16659C7.73198 3.16659 6.23442 3.78013 5.00733 5.00721C3.78025 6.23429 3.16671 7.73186 3.16671 9.49992C3.16671 10.0937 3.24244 10.661 3.39392 11.202C3.54592 11.743 3.77365 12.2444 4.07712 12.7062C4.59171 12.4423 5.13611 12.2378 5.71033 12.0926C6.28403 11.9475 6.88754 11.8749 7.52087 11.8749C7.9431 11.8749 8.34896 11.9111 8.73846 11.9834C9.12743 12.0562 9.51323 12.152 9.89587 12.2708C9.5924 12.4291 9.30555 12.6138 9.03533 12.8249C8.76458 13.036 8.51046 13.2603 8.27296 13.4978C8.11462 13.4714 7.97951 13.4583 7.86762 13.4583H7.52087C7.08546 13.4583 6.66323 13.5044 6.25421 13.5968C5.84518 13.6892 5.44935 13.8277 5.06671 14.0124C5.48893 14.4346 5.96076 14.7877 6.48221 15.0717C7.00312 15.3551 7.56046 15.5562 8.15421 15.6749ZM9.50004 17.4166C8.4049 17.4166 7.37574 17.2086 6.41254 16.7928C5.44935 16.3774 4.6115 15.8135 3.899 15.101C3.1865 14.3885 2.62257 13.5506 2.20721 12.5874C1.79132 11.6242 1.58337 10.5951 1.58337 9.49992C1.58337 8.40478 1.79132 7.37561 2.20721 6.41242C2.62257 5.44922 3.1865 4.61138 3.899 3.89888C4.6115 3.18638 5.44935 2.62218 6.41254 2.20629C7.37574 1.79093 8.4049 1.58325 9.50004 1.58325C10.5952 1.58325 11.6243 1.79093 12.5875 2.20629C13.5507 2.62218 14.3886 3.18638 15.1011 3.89888C15.8136 4.61138 16.3775 5.44922 16.7929 6.41242C17.2088 7.37561 17.4167 8.40478 17.4167 9.49992C17.4167 10.5951 17.2088 11.6242 16.7929 12.5874C16.3775 13.5506 15.8136 14.3885 15.1011 15.101C14.3886 15.8135 13.5507 16.3774 12.5875 16.7928C11.6243 17.2086 10.5952 17.4166 9.50004 17.4166Z" fill="#F57E27"/>
</svg>
