<svg width="20" height="17" viewBox="0 0 20 17" fill="none" xmlns="http://www.w3.org/2000/svg">
<g clip-path="url(#clip0_143_498)">
<path d="M6.90631 1.59375C6.90631 2.47363 6.19245 3.1875 5.31256 3.1875C4.43268 3.1875 3.71881 2.47363 3.71881 1.59375C3.71881 0.713867 4.43268 0 5.31256 0C6.19245 0 6.90631 0.713867 6.90631 1.59375ZM5.04694 11.6875V15.9375C5.04694 16.5252 4.57213 17 3.98444 17C3.39674 17 2.92194 16.5252 2.92194 15.9375V8.52988L1.97233 10.1104C1.67018 10.6117 1.01608 10.7744 0.514712 10.4723C0.0133447 10.1701 -0.149351 9.51602 0.152798 9.01465L2.08854 5.79395C2.66627 4.83437 3.70221 4.24668 4.82116 4.24668H5.80729C6.92624 4.24668 7.96217 4.83437 8.53991 5.79395L10.0307 8.27422C9.49616 8.85859 9.08112 9.55254 8.81549 10.3162C8.75241 10.2564 8.69928 10.1867 8.6528 10.107L7.70319 8.52988V15.9375C7.70319 16.5252 7.22838 17 6.64069 17C6.05299 17 5.57819 16.5252 5.57819 15.9375V11.6875H5.04694ZM14.3438 17C11.7042 17 9.56256 14.8584 9.56256 12.2188C9.56256 9.5791 11.7042 7.4375 14.3438 7.4375C16.9835 7.4375 19.1251 9.5791 19.1251 12.2188C19.1251 14.8584 16.9835 17 14.3438 17ZM14.8751 10.0938C14.8751 9.80156 14.636 9.5625 14.3438 9.5625C14.0516 9.5625 13.8126 9.80156 13.8126 10.0938V11.6875H12.2188C11.9266 11.6875 11.6876 11.9266 11.6876 12.2188C11.6876 12.5109 11.9266 12.75 12.2188 12.75H13.8126V14.3438C13.8126 14.6359 14.0516 14.875 14.3438 14.875C14.636 14.875 14.8751 14.6359 14.8751 14.3438V12.75H16.4688C16.761 12.75 17.0001 12.5109 17.0001 12.2188C17.0001 11.9266 16.761 11.6875 16.4688 11.6875H14.8751V10.0938Z" fill="#3F5DFF"/>
</g>
<defs>
<clipPath id="clip0_143_498">
<rect width="19.125" height="17" fill="white"/>
</clipPath>
</defs>
</svg>
