<svg width="20" height="20" viewBox="0 0 20 20" fill="none" xmlns="http://www.w3.org/2000/svg">
<g clip-path="url(#clip0_9_191)">
<path d="M3.87317 0.75H4.37999H15.62H16.1268L16.1199 1.25677C16.1111 1.91086 16.087 2.53054 16.049 3.11825C16.049 3.11836 16.0489 3.11847 16.0489 3.11858L15.55 3.08625L3.87317 0.75ZM3.87317 0.75L3.88003 1.25677M3.87317 0.75L3.88003 1.25677M3.88003 1.25677C3.88889 1.91098 3.91295 2.53077 3.95103 3.11858C4.11584 5.68921 4.53161 7.63609 5.06831 9.09285L5.06834 9.09293M3.88003 1.25677L5.06834 9.09293M5.06834 9.09293C6.18293 12.1168 7.80398 13 8.74999 13C8.78314 13 8.81493 13.0132 8.83837 13.0366C8.86182 13.0601 8.87499 13.0918 8.87499 13.125V16.3875C8.87498 16.5547 8.81911 16.7171 8.71624 16.8489C8.61338 16.9807 8.46942 17.0744 8.30724 17.115L6.52552 17.5598C6.37985 17.596 6.24291 17.6611 6.12277 17.751L6.12229 17.7514L5.32479 18.3502L4.12624 19.25H5.62499H14.375H15.8737L14.6752 18.3502L13.8777 17.7514L13.8765 17.7505C13.7561 17.6606 13.6188 17.5957 13.4729 17.5597M5.06834 9.09293L13.4729 17.5597M13.4729 17.5597C13.4726 17.5596 13.4722 17.5596 13.4719 17.5595L11.6927 17.115C11.5306 17.0744 11.3866 16.9807 11.2837 16.8489C11.1809 16.7171 11.125 16.5547 11.125 16.3875V13.125C11.125 13.0918 11.1382 13.0601 11.1616 13.0366C11.185 13.0132 11.2168 13 11.25 13C12.196 13 13.817 12.1168 14.9316 9.09299L13.4729 17.5597ZM3.62499 0.625207V0.625C3.62499 0.591848 3.63816 0.560054 3.6616 0.536611C3.68504 0.513169 3.71683 0.5 3.74999 0.5H16.25C16.2831 0.5 16.3149 0.51317 16.3384 0.536612C16.3618 0.560053 16.375 0.591847 16.375 0.625C16.375 1.29007 16.3602 1.92253 16.333 2.52239L16.3129 2.96577L16.7508 3.03828C17.1789 3.10917 17.5884 3.26505 17.9553 3.49673C18.3221 3.72841 18.6389 4.03121 18.8868 4.38726C19.1348 4.74331 19.309 5.14541 19.399 5.56985C19.4891 5.99428 19.4933 6.43246 19.4113 6.85853C19.3294 7.28461 19.1629 7.68997 18.9218 8.05069C18.6807 8.41142 18.3698 8.72021 18.0074 8.95886C17.6451 9.1975 17.2386 9.36118 16.812 9.44023C16.3853 9.51928 15.9472 9.5121 15.5234 9.41912L15.1178 9.33013L14.9558 9.71248C14.0046 11.958 12.7429 12.9438 11.756 13.1856L11.375 13.279V13.6713V16.3875V16.778L11.7538 16.8726L13.535 17.3176L13.5361 17.3179C13.7133 17.3617 13.8808 17.4413 14.0274 17.5512C14.0274 17.5512 14.0275 17.5512 14.0275 17.5512L16.3249 19.2749L16.325 19.275C16.346 19.2907 16.3615 19.3127 16.3693 19.3377C16.3771 19.3628 16.3769 19.3896 16.3686 19.4145C16.3603 19.4394 16.3444 19.4611 16.3231 19.4764C16.3018 19.4917 16.2762 19.5 16.25 19.5H3.74999C3.72375 19.5 3.69818 19.4917 3.6769 19.4764C3.65562 19.4611 3.6397 19.4394 3.6314 19.4145C3.6231 19.3896 3.62285 19.3628 3.63067 19.3377C3.63849 19.3127 3.654 19.2907 3.67499 19.275L3.67506 19.2749L5.97249 17.5512C5.97251 17.5512 5.97253 17.5512 5.97256 17.5512C6.11913 17.4413 6.28672 17.3617 6.46383 17.3179L6.46492 17.3176L8.24617 16.8726L8.62499 16.778V16.3875V13.6713V13.279L8.24398 13.1856C7.25712 12.9438 5.99538 11.9581 5.04417 9.71132L4.88209 9.32847L4.47609 9.41798C4.05206 9.51146 3.61359 9.51903 3.18659 9.44023C2.75958 9.36143 2.3527 9.19787 1.98996 8.9592L1.71513 9.37689L1.98996 8.9592C1.62722 8.72052 1.31599 8.41159 1.07464 8.05062C0.833297 7.68966 0.666729 7.284 0.584777 6.85759C0.502825 6.43118 0.507151 5.99267 0.597499 5.56796C0.687848 5.14325 0.862386 4.74094 1.11081 4.38481C1.35923 4.02868 1.6765 3.72594 2.04387 3.49448C2.41124 3.26301 2.82128 3.1075 3.24975 3.03714L3.68866 2.96507L3.66821 2.52075C3.63913 1.88932 3.62472 1.25731 3.62499 0.625207ZM3.74702 3.75861L3.70135 3.20888L3.15874 3.30817C2.37603 3.45138 1.68227 3.89966 1.23008 4.55439C0.777892 5.20911 0.604311 6.01666 0.747526 6.79937C0.890741 7.58208 1.33902 8.27584 1.99375 8.72803C2.64848 9.18022 3.45602 9.3538 4.23873 9.21058L4.79687 9.10846L4.62534 8.5676C4.22247 7.29729 3.90955 5.71508 3.74702 3.75861ZM15.3758 8.56801L15.2048 9.10855L15.7625 9.21058C16.5452 9.3538 17.3527 9.18022 18.0075 8.72803C18.6622 8.27584 19.1105 7.58208 19.2537 6.79937C19.3969 6.01666 19.2233 5.20911 18.7711 4.55439C18.3189 3.89966 17.6252 3.45138 16.8425 3.30817L16.3002 3.20894L16.2542 3.75832C16.0905 5.71616 15.7775 7.29737 15.3758 8.56801Z" fill="#555555" stroke="#880974"/>
</g>
<defs>
<clipPath id="clip0_9_191">
<rect width="20" height="20" fill="white"/>
</clipPath>
</defs>
</svg>
