<svg width="20" height="17" viewBox="0 0 20 17" fill="none" xmlns="http://www.w3.org/2000/svg">
<g clip-path="url(#clip0_9_299)">
<path d="M20 1.98827C19.2511 2.32005 18.4567 2.53783 17.6433 2.63437C18.4905 2.12655 19.1411 1.32241 19.4474 0.364287C18.642 0.842244 17.7608 1.179 16.8419 1.35999C16.0934 0.562568 15.027 0.064209 13.8468 0.064209C11.5807 0.064209 9.74344 1.9014 9.74344 4.16733C9.74344 4.48897 9.77977 4.8021 9.84969 5.10249C6.43953 4.93132 3.41609 3.2978 1.39227 0.815303C1.03914 1.42132 0.836797 2.12624 0.836797 2.87812C0.836797 4.30171 1.56125 5.55757 2.66219 6.29343C2.01059 6.27302 1.37332 6.09703 0.803594 5.78015C0.803359 5.79733 0.803359 5.81452 0.803359 5.83179C0.803359 7.81983 2.21773 9.47827 4.09477 9.85522C3.49054 10.0196 2.85674 10.0436 2.2418 9.92554C2.76391 11.5557 4.2793 12.7419 6.07477 12.7751C4.67047 13.8756 2.90117 14.5316 0.978828 14.5316C0.647578 14.5316 0.321016 14.5122 0 14.4743C1.81586 15.6385 3.97266 16.3178 6.28984 16.3178C13.8373 16.3178 17.9644 10.0654 17.9644 4.64319C17.9644 4.46522 17.9605 4.28827 17.9525 4.11233C18.7558 3.53162 19.4492 2.81235 20 1.98827Z" fill="#55ACEE"/>
</g>
<defs>
<clipPath id="clip0_9_299">
<rect width="20" height="16.3281" fill="white"/>
</clipPath>
</defs>
</svg>
