<svg width="15" height="15" viewBox="0 0 15 15" fill="none" xmlns="http://www.w3.org/2000/svg">
<g clip-path="url(#clip0_9_611)">
<path d="M12.7806 12.7809H10.5581V9.30027C10.5581 8.47029 10.5432 7.40183 9.40212 7.40183C8.24455 7.40183 8.06742 8.30617 8.06742 9.23986V12.7807H5.84496V5.6231H7.97853V6.60127H8.00841C8.22193 6.23617 8.53048 5.93582 8.9012 5.73221C9.27191 5.5286 9.69091 5.42935 10.1136 5.44504C12.3662 5.44504 12.7815 6.92676 12.7815 8.85437L12.7806 12.7809ZM3.33714 4.64476C2.62482 4.64488 2.04726 4.0675 2.04714 3.35517C2.04703 2.64285 2.62435 2.06529 3.33667 2.06517C4.049 2.065 4.62656 2.64238 4.62667 3.3547C4.62674 3.69678 4.49091 4.02487 4.24908 4.2668C4.00725 4.50873 3.67922 4.64469 3.33714 4.64476ZM4.44843 12.781H2.22357V5.6231H4.44837V12.7809L4.44843 12.781ZM13.8886 0.00109171H1.10677C0.502671 -0.00570516 0.00726074 0.478221 -0.00012207 1.08232V13.9175C0.00702637 14.5219 0.502378 15.0062 1.10671 14.9999H13.8886C14.4942 15.0074 14.9915 14.523 14.9999 13.9175V1.08133C14.9913 0.476053 14.4939 -0.00781454 13.8886 9.56187e-05" fill="#0A66C2"/>
</g>
<defs>
<clipPath id="clip0_9_611">
<rect width="15" height="15" fill="white"/>
</clipPath>
</defs>
</svg>
