<svg width="58" height="58" viewBox="0 0 58 58" fill="none" xmlns="http://www.w3.org/2000/svg">
<g filter="url(#filter0_d_0_430)">
<rect x="17" y="17" width="24" height="24" rx="4" fill="#DD7824"/>
<path d="M35.6666 24.8667C35.1655 25.0841 34.6356 25.2278 34.0933 25.2934C34.6654 24.9516 35.0942 24.4139 35.3 23.78C34.7623 24.1001 34.1738 24.3255 33.56 24.4467C33.1497 24.0017 32.6033 23.7055 32.0065 23.6046C31.4097 23.5036 30.7963 23.6036 30.2625 23.8888C29.7287 24.174 29.3046 24.6284 29.0568 25.1806C28.809 25.7328 28.7515 26.3516 28.8933 26.94C27.8063 26.885 26.7429 26.602 25.7724 26.1093C24.8019 25.6165 23.9459 24.9251 23.26 24.08C23.0194 24.5001 22.893 24.9759 22.8933 25.46C22.8925 25.9096 23.0028 26.3524 23.2145 26.7491C23.4262 27.1457 23.7327 27.4838 24.1066 27.7334C23.672 27.7215 23.2466 27.6049 22.8666 27.3934V27.4267C22.8699 28.0566 23.0906 28.6661 23.4915 29.152C23.8924 29.6379 24.4488 29.9704 25.0666 30.0934C24.8288 30.1657 24.5819 30.2039 24.3333 30.2067C24.1612 30.2047 23.9896 30.1891 23.82 30.16C23.9959 30.7019 24.3364 31.1754 24.794 31.5148C25.2517 31.8541 25.8037 32.0424 26.3733 32.0534C25.4114 32.8102 24.2239 33.2233 23 33.2267C22.7771 33.2274 22.5545 33.2141 22.3333 33.1867C23.5829 33.9935 25.0392 34.4218 26.5266 34.42C27.5531 34.4307 28.5714 34.2367 29.5221 33.8494C30.4727 33.4621 31.3367 32.8893 32.0634 32.1643C32.7902 31.4394 33.3653 30.5769 33.755 29.6273C34.1447 28.6776 34.3413 27.6598 34.3333 26.6334C34.3333 26.52 34.3333 26.4 34.3333 26.28C34.8564 25.8899 35.3076 25.4116 35.6666 24.8667Z" fill="white"/>
</g>
<defs>
<filter id="filter0_d_0_430" x="0" y="0" width="58" height="58" filterUnits="userSpaceOnUse" color-interpolation-filters="sRGB">
<feFlood flood-opacity="0" result="BackgroundImageFix"/>
<feColorMatrix in="SourceAlpha" type="matrix" values="0 0 0 0 0 0 0 0 0 0 0 0 0 0 0 0 0 0 127 0" result="hardAlpha"/>
<feOffset/>
<feGaussianBlur stdDeviation="8.5"/>
<feComposite in2="hardAlpha" operator="out"/>
<feColorMatrix type="matrix" values="0 0 0 0 0 0 0 0 0 0 0 0 0 0 0 0 0 0 0.05 0"/>
<feBlend mode="normal" in2="BackgroundImageFix" result="effect1_dropShadow_0_430"/>
<feBlend mode="normal" in="SourceGraphic" in2="effect1_dropShadow_0_430" result="shape"/>
</filter>
</defs>
</svg>
