<svg width="16" height="16" viewBox="0 0 16 16" fill="none" xmlns="http://www.w3.org/2000/svg">
    <path
        d="M11.0997 13.4668V13.6601C10.113 14.2934 8.93302 14.6667 7.66635 14.6667C6.37969 14.6667 5.17969 14.2801 4.17969 13.6201V13.4668C4.17969 11.9134 5.73302 10.6467 7.63969 10.6467C9.55302 10.6467 11.0997 11.9134 11.0997 13.4668Z"
        fill="#DD7824" />
    <path opacity="0.4"
        d="M14 8.33333C14 10.5667 12.8466 12.5267 11.1 13.66V13.4667C11.1 11.9133 9.55331 10.6466 7.63998 10.6466C5.73331 10.6466 4.17998 11.9133 4.17998 13.4667V13.62C2.46665 12.4867 1.33331 10.5467 1.33331 8.33333C1.33331 4.83333 4.16665 2 7.66665 2C8.53998 2 9.37331 2.17333 10.1333 2.49333C10.0466 2.75999 9.99998 3.04 9.99998 3.33333C9.99998 3.83333 10.14 4.30666 10.3866 4.70666C10.52 4.93333 10.6933 5.13998 10.8933 5.31331C11.36 5.73998 11.98 6 12.6666 6C12.96 6 13.24 5.95332 13.5 5.85999C13.82 6.61999 14 7.46 14 8.33333Z"
        fill="#DD7824" />
    <path
        d="M14.6467 1.55343C14.1667 1.00676 13.4533 0.666748 12.6667 0.666748C11.92 0.666748 11.24 0.973429 10.7533 1.47343C10.4733 1.7601 10.26 2.10674 10.1333 2.49341C10.0467 2.76007 10 3.04008 10 3.33341C10 3.83341 10.14 4.30675 10.3867 4.70675C10.52 4.93341 10.6933 5.14006 10.8933 5.3134C11.36 5.74006 11.98 6.00008 12.6667 6.00008C12.96 6.00008 13.24 5.9534 13.5 5.86007C14.1133 5.66673 14.6267 5.24675 14.9467 4.70675C15.0867 4.48008 15.1933 4.22008 15.2533 3.95341C15.3067 3.75341 15.3333 3.54675 15.3333 3.33341C15.3333 2.65341 15.0733 2.02676 14.6467 1.55343ZM13.66 3.82007H13.1667V4.34009C13.1667 4.61342 12.94 4.84009 12.6667 4.84009C12.3933 4.84009 12.1667 4.61342 12.1667 4.34009V3.82007H11.6733C11.4 3.82007 11.1733 3.5934 11.1733 3.32007C11.1733 3.04674 11.4 2.82007 11.6733 2.82007H12.1667V2.34676C12.1667 2.07343 12.3933 1.84676 12.6667 1.84676C12.94 1.84676 13.1667 2.07343 13.1667 2.34676V2.82007H13.66C13.9333 2.82007 14.16 3.04674 14.16 3.32007C14.16 3.5934 13.94 3.82007 13.66 3.82007Z"
        fill="#DD7824" />
    <path
        d="M7.64024 9.81991C8.67485 9.81991 9.51357 8.98119 9.51357 7.94657C9.51357 6.91196 8.67485 6.07324 7.64024 6.07324C6.60563 6.07324 5.76691 6.91196 5.76691 7.94657C5.76691 8.98119 6.60563 9.81991 7.64024 9.81991Z"
        fill="#DD7824" />
</svg>