<svg width="16" height="16" viewBox="0 0 16 16" fill="none" xmlns="http://www.w3.org/2000/svg">
    <path
        d="M12.6003 10.0198C11.1269 10.0198 9.93359 11.2131 9.93359 12.6864C9.93359 14.1598 11.1269 15.3531 12.6003 15.3531C14.0736 15.3531 15.2669 14.1598 15.2669 12.6864C15.2669 11.2131 14.0736 10.0198 12.6003 10.0198ZM13.6669 13.7864C13.5669 13.8864 13.4402 13.9331 13.3136 13.9331C13.1869 13.9331 13.0602 13.8864 12.9602 13.7864L12.6069 13.4331L12.2402 13.7998C12.1402 13.8998 12.0136 13.9464 11.8869 13.9464C11.7603 13.9464 11.6336 13.8998 11.5336 13.7998C11.3402 13.6064 11.3402 13.2864 11.5336 13.0931L11.9002 12.7264L11.5469 12.3731C11.3536 12.1798 11.3536 11.8598 11.5469 11.6664C11.7402 11.4731 12.0602 11.4731 12.2536 11.6664L12.6069 12.0198L12.9402 11.6864C13.1336 11.4931 13.4536 11.4931 13.6469 11.6864C13.8402 11.8798 13.8402 12.1998 13.6469 12.3931L13.3136 12.7264L13.6669 13.0798C13.8602 13.2731 13.8602 13.5931 13.6669 13.7864Z"
        fill="#DD7824" />
    <path
        d="M14.6667 5.0266V5.99993H1.33334V5.0266C1.33334 3.49993 2.57336 2.2666 4.10003 2.2666H11.9C13.4267 2.2666 14.6667 3.49993 14.6667 5.0266Z"
        fill="#DD7824" />
    <path opacity="0.4"
        d="M1.33334 6V10.9733C1.33334 12.5 2.56669 13.7333 4.09335 13.7333H8.26669C8.65336 13.7333 8.98667 13.4067 8.95334 13.02C8.86 12 9.18669 10.8933 10.0934 10.0133C10.4667 9.64667 10.9267 9.36667 11.4267 9.20667C12.26 8.94 13.0667 8.97333 13.78 9.21333C14.2133 9.36 14.6667 9.04667 14.6667 8.58667V6H1.33334ZM5.33334 11.5H4.00001C3.72668 11.5 3.50001 11.2733 3.50001 11C3.50001 10.7267 3.72668 10.5 4.00001 10.5H5.33334C5.60668 10.5 5.83334 10.7267 5.83334 11C5.83334 11.2733 5.60668 11.5 5.33334 11.5Z"
        fill="#DD7824" />
    <path
        d="M5.83333 11C5.83333 11.2733 5.60667 11.5 5.33333 11.5H4C3.72667 11.5 3.5 11.2733 3.5 11C3.5 10.7267 3.72667 10.5 4 10.5H5.33333C5.60667 10.5 5.83333 10.7267 5.83333 11Z"
        fill="#DD7824" />
</svg>